<svg width="155" height="155" viewBox="0 0 155 155" fill="none" xmlns="http://www.w3.org/2000/svg">
<path d="M117.154 139.629C111.471 141.308 104.754 142.083 96.875 142.083H58.125C50.2458 142.083 43.5292 141.308 37.8458 139.629C39.2667 122.837 56.5104 109.598 77.5 109.598C98.4896 109.598 115.733 122.837 117.154 139.629Z" fill="#646464" stroke="#646464" stroke-width="1.5" stroke-linecap="round" stroke-linejoin="round"/>
<path d="M96.875 12.917H58.125C25.8333 12.917 12.9167 25.8337 12.9167 58.1253V96.8753C12.9167 121.288 20.2792 134.657 37.8458 139.63C39.2667 122.838 56.5104 109.598 77.5 109.598C98.4896 109.598 115.733 122.838 117.154 139.63C134.721 134.657 142.083 121.288 142.083 96.8753V58.1253C142.083 25.8337 129.167 12.917 96.875 12.917ZM77.5 91.5149C64.7125 91.5149 54.3792 81.117 54.3792 68.3295C54.3792 55.542 64.7125 45.2087 77.5 45.2087C90.2875 45.2087 100.621 55.542 100.621 68.3295C100.621 81.117 90.2875 91.5149 77.5 91.5149Z" stroke="#646464" stroke-width="1.5" stroke-linecap="round" stroke-linejoin="round"/>
<path d="M100.621 68.3288C100.621 81.1163 90.2875 91.5143 77.5 91.5143C64.7125 91.5143 54.3792 81.1163 54.3792 68.3288C54.3792 55.5413 64.7125 45.208 77.5 45.208C90.2875 45.208 100.621 55.5413 100.621 68.3288Z" fill="#646464" stroke="#646464" stroke-width="1.5" stroke-linecap="round" stroke-linejoin="round"/>
<rect width="42.7586" height="42.7586" transform="translate(112.241 1.78125)" fill="white"/>
<path d="M131.839 5.34473H128.276C119.368 5.34473 115.805 8.90794 115.805 17.816V28.5056C115.805 37.4137 119.368 40.9769 128.276 40.9769H138.966C147.874 40.9769 151.437 37.4137 151.437 28.5056V24.9424" stroke="#646464" stroke-width="1.5" stroke-linecap="round" stroke-linejoin="round"/>
<path d="M140.818 7.16132L126.779 21.2004C126.245 21.7349 125.71 22.786 125.603 23.5521L124.837 28.9148C124.552 30.8567 125.924 32.2107 127.866 31.9435L133.229 31.1774C133.977 31.0705 135.028 30.536 135.58 30.0015L149.62 15.9625C152.043 13.5395 153.183 10.7245 149.62 7.16132C146.056 3.5981 143.241 4.73833 140.818 7.16132V7.16132Z" stroke="#646464" stroke-width="1.5" stroke-miterlimit="10" stroke-linecap="round" stroke-linejoin="round"/>
<path d="M138.805 9.1748C139.396 11.2726 140.515 13.1835 142.057 14.7246C143.598 16.2657 145.509 17.3852 147.606 17.976" stroke="#646464" stroke-width="1.5" stroke-miterlimit="10" stroke-linecap="round" stroke-linejoin="round"/>
</svg>
