<svg width="31" height="33" viewBox="0 0 31 33" fill="none" xmlns="http://www.w3.org/2000/svg">
<circle opacity="0.4" cx="15" cy="18" r="15" fill="#8a64d6"/>
<path d="M31 1.49999C31 1.97812 25.8393 9.30494 25.5982 9.62369L15.3125 23.2237C15.0714 23.5425 14.75 23.7018 14.4286 23.7018C14.067 23.7018 13.7455 23.5425 13.5045 23.2237L8.36161 16.4237C8.12054 16.1049 8 15.6799 8 15.2018C8 14.2456 8.5625 13.5018 9.28572 13.5018C9.60714 13.5018 9.92857 13.7143 10.1696 14.0331L14.4286 19.6112L24 7.5C24.2411 7.18125 29.1384 0.5 29.5 0.5C30.183 0.5 31 0.543742 31 1.49999Z" fill="#8a64d6"/>
</svg>
