<svg width="38" height="38" viewBox="0 0 38 38" fill="none" xmlns="http://www.w3.org/2000/svg">
<path opacity="0.4" d="M33.3767 13.5854V24.4153C33.3767 26.1887 32.4266 27.8354 30.8908 28.7379L21.4858 34.1687C19.95 35.0554 18.0499 35.0554 16.4983 34.1687L7.09327 28.7379C5.55743 27.8512 4.60742 26.2045 4.60742 24.4153V13.5854C4.60742 11.812 5.55743 10.1653 7.09327 9.26281L16.4983 3.83199C18.0341 2.94533 19.9341 2.94533 21.4858 3.83199L30.8908 9.26281C32.4266 10.1653 33.3767 11.7962 33.3767 13.5854Z" fill="#8a64d6"/>
<path d="M19 21.7705C18.3508 21.7705 17.8125 21.2322 17.8125 20.583V12.2705C17.8125 11.6213 18.3508 11.083 19 11.083C19.6492 11.083 20.1875 11.6213 20.1875 12.2705V20.583C20.1875 21.2322 19.6492 21.7705 19 21.7705Z" fill="#8a64d6"/>
<path d="M19.0003 27.3124C18.7945 27.3124 18.5887 27.2648 18.3987 27.1857C18.1928 27.1065 18.0345 26.9957 17.8761 26.8532C17.7336 26.6949 17.6228 26.5207 17.5278 26.3307C17.4487 26.1407 17.417 25.9349 17.417 25.729C17.417 25.3174 17.5753 24.9057 17.8761 24.6048C18.0345 24.4623 18.1928 24.3516 18.3987 24.2724C18.9845 24.0191 19.6812 24.1615 20.1245 24.6048C20.267 24.7632 20.3778 24.9215 20.457 25.1273C20.5361 25.3173 20.5837 25.5232 20.5837 25.729C20.5837 25.9349 20.5361 26.1407 20.457 26.3307C20.3778 26.5207 20.267 26.6949 20.1245 26.8532C19.8237 27.1541 19.4278 27.3124 19.0003 27.3124Z" fill="#8a64d6"/>
</svg>
